<?xml version="1.0" standalone="no"?>
<!DOCTYPE svg PUBLIC "-//W3C//DTD SVG 20010904//EN"
 "http://www.w3.org/TR/2001/REC-SVG-20010904/DTD/svg10.dtd">
<svg version="1.0" xmlns="http://www.w3.org/2000/svg"
 width="2160.000000pt" height="2160.000000pt" viewBox="0 0 2160.000000 2160.000000"
 preserveAspectRatio="xMidYMid meet">

<g transform="translate(0.000000,2160.000000) scale(0.100000,-0.100000)"
fill="#000000" stroke="none">
<path d="M12682 9937 c-46 -49 -19 -88 60 -86 l43 1 -31 13 c-41 18 -57 40
-52 70 6 30 7 30 -20 2z"/>
<path d="M12509 9920 c-28 -37 -82 -73 -140 -94 -26 -9 -35 -15 -23 -16 54 -1
153 60 179 111 20 37 12 37 -16 -1z"/>
<path d="M12578 9723 c-37 -10 -169 -180 -271 -352 -92 -153 -247 -456 -247
-482 0 -21 45 -6 96 31 46 35 296 200 445 295 34 22 64 57 113 130 68 103 58
97 -57 -38 -36 -42 -80 -76 -180 -135 -72 -44 -166 -101 -207 -126 -77 -48
-100 -55 -100 -33 0 51 133 326 228 471 62 94 149 185 197 207 28 13 65 19
125 19 59 0 80 3 70 10 -15 10 -179 12 -212 3z"/>
<path d="M12296 9707 l-29 -13 27 -12 c30 -13 32 -31 9 -75 -24 -47 -211 -317
-241 -350 -39 -42 -420 -277 -448 -277 -11 0 6 50 57 163 88 198 47 164 -69
-58 -123 -236 -127 -244 -115 -256 8 -8 30 4 82 48 39 33 170 125 290 204 203
133 221 148 252 199 18 30 71 112 118 183 121 179 152 230 148 242 -5 15 -48
16 -81 2z"/>
<path d="M13970 9515 c-30 -36 -70 -46 -208 -51 -107 -5 -148 -2 -186 10 -49
15 -49 15 -30 -4 23 -23 34 -24 241 -22 l161 2 21 36 c23 38 23 56 1 29z"/>
<path d="M9183 9477 c-55 -63 -150 -203 -198 -292 -27 -49 -83 -144 -125 -210
-72 -111 -150 -254 -150 -272 0 -5 23 33 50 82 28 50 77 126 110 170 32 44 98
148 146 230 48 83 114 189 146 238 32 48 57 87 54 87 -2 0 -17 -15 -33 -33z"/>
<path d="M8016 9466 c5 -13 22 -16 103 -14 l96 1 -85 7 c-47 4 -93 10 -103 15
-13 5 -16 4 -11 -9z"/>
<path d="M10116 9466 c5 -13 22 -16 103 -14 l96 1 -85 7 c-47 4 -93 10 -103
15 -13 5 -16 4 -11 -9z"/>
<path d="M8373 9459 c14 -8 22 -8 30 0 8 8 3 11 -18 11 -26 -1 -28 -2 -12 -11z"/>
<path d="M10442 9461 c-8 -5 0 -7 23 -6 20 1 39 5 42 9 9 9 -50 7 -65 -3z"/>
<path d="M13334 9442 c-17 -15 -61 -63 -97 -108 -54 -66 -87 -94 -179 -154
-62 -41 -162 -106 -223 -146 -117 -76 -167 -104 -186 -104 -44 0 102 267 222
406 22 25 37 49 33 53 -21 20 -284 -349 -323 -454 -25 -66 -25 -69 -6 -85 16
-14 25 -8 420 251 197 130 213 142 250 201 22 34 59 86 83 115 24 29 42 53 40
53 -2 0 -17 -13 -34 -28z"/>
<path d="M8328 9453 c7 -3 16 -2 19 1 4 3 -2 6 -13 5 -11 0 -14 -3 -6 -6z"/>
<path d="M9372 9440 c-50 -31 -39 -51 35 -67 46 -11 73 -24 106 -53 56 -50 78
-96 78 -165 0 -110 -79 -222 -232 -326 -49 -34 -89 -63 -89 -66 0 -12 135 71
249 153 20 14 38 21 43 16 5 -5 13 -37 18 -72 10 -73 20 -90 20 -34 0 70 28
149 98 281 71 133 100 180 166 273 l39 55 -37 -35 c-20 -20 -73 -85 -119 -145
-45 -60 -87 -110 -93 -112 -6 -2 -21 22 -32 54 -27 75 -71 127 -137 164 -61
34 -72 45 -77 77 l-3 22 -33 -20z"/>
<path d="M14029 9358 c-40 -57 -85 -121 -101 -142 -32 -46 -37 -86 -10 -86 9
0 65 38 124 84 58 46 154 114 212 151 58 38 104 71 102 73 -4 3 -120 -59 -246
-132 -25 -14 -51 -26 -57 -26 -23 0 -14 40 23 106 20 36 34 67 31 70 -3 3 -38
-41 -78 -98z"/>
<path d="M11456 9389 c-153 -109 -324 -313 -367 -436 -21 -61 -22 -104 -3
-110 16 -5 298 248 399 358 131 142 163 199 130 233 -30 30 -68 19 -159 -45z
m118 15 c20 -20 20 -23 -3 -59 -44 -70 -394 -405 -422 -405 -43 0 -11 71 86
195 105 133 270 285 311 285 7 0 20 -7 28 -16z"/>
<path d="M7718 9344 c-47 -57 -110 -111 -253 -219 -185 -140 -266 -205 -235
-189 8 5 35 24 60 42 25 19 101 72 170 119 201 135 205 138 269 233 33 50 59
90 56 90 -2 0 -33 -34 -67 -76z"/>
<path d="M11204 9307 c-86 -90 -164 -198 -188 -262 -10 -28 -4 -19 60 76 60
90 190 248 210 256 11 4 28 33 20 33 -2 0 -48 -46 -102 -103z"/>
<path d="M7293 9388 c-30 -14 -29 -26 1 -21 13 3 36 -3 50 -12 25 -17 26 -17
26 3 0 12 -9 26 -19 32 -24 12 -29 12 -58 -2z"/>
<path d="M8474 9368 c-50 -57 -69 -108 -39 -108 9 0 44 18 78 41 39 26 53 39
37 35 -32 -7 -47 3 -51 32 l-4 24 -21 -24z"/>
<path d="M10557 9345 c-65 -88 -41 -111 51 -50 28 20 52 37 52 38 0 2 -12 3
-27 2 -23 0 -28 5 -33 30 l-6 30 -37 -50z"/>
<path d="M8319 9376 c-2 -2 -60 -7 -129 -11 -109 -6 -127 -9 -142 -27 -10 -11
-18 -30 -18 -43 0 -86 -95 -262 -224 -415 -105 -125 -108 -133 -22 -50 140
135 231 274 270 411 22 74 41 89 115 96 63 6 91 -5 91 -35 0 -9 -31 -65 -70
-126 -75 -120 -119 -210 -144 -296 -21 -71 -6 -54 34 40 18 41 84 157 146 256
63 100 114 187 114 193 0 11 -13 15 -21 7z"/>
<path d="M10419 9376 c-2 -2 -60 -7 -129 -11 -138 -7 -160 -17 -160 -76 0 -78
-84 -240 -194 -374 -128 -155 -133 -164 -62 -95 142 136 237 276 275 406 12
39 29 78 40 88 21 19 106 32 145 22 40 -10 33 -45 -29 -142 -84 -129 -176
-326 -161 -341 2 -3 24 38 48 89 25 51 93 168 151 260 59 92 107 170 107 173
0 6 -25 7 -31 1z"/>
<path d="M13731 9368 c-74 -5 -140 -13 -147 -19 -7 -6 -16 -32 -20 -57 -19
-133 -97 -266 -278 -476 -84 -97 -44 -72 63 40 146 152 200 237 240 371 27 89
44 103 129 103 91 0 92 -17 11 -125 -76 -102 -180 -330 -166 -368 2 -6 9 6 15
28 7 22 24 60 40 85 16 25 46 76 67 115 22 38 79 122 127 187 48 65 88 120 88
123 0 3 -8 4 -17 4 -10 -1 -78 -6 -152 -11z"/>
<path d="M8766 9340 c-26 -10 -50 -20 -51 -22 -2 -2 27 -3 63 -3 62 1 67 2 70
23 4 28 -15 28 -82 2z"/>
<path d="M10883 9345 c-40 -17 -41 -20 -5 -21 15 -1 36 -3 47 -5 14 -3 21 2
23 19 4 26 -16 29 -65 7z"/>
<path d="M11722 9340 c0 -14 2 -19 5 -12 2 6 2 18 0 25 -3 6 -5 1 -5 -13z"/>
<path d="M14563 9348 c-4 -7 -24 -44 -43 -83 -20 -38 -69 -128 -108 -199 -40
-70 -72 -134 -72 -142 0 -41 62 -16 202 83 100 70 135 99 78 65 -110 -65 -141
-82 -164 -88 -42 -10 -44 19 -6 95 42 83 129 281 125 281 -2 0 -7 -6 -12 -12z"/>
<path d="M7855 9288 c-89 -102 -230 -342 -219 -373 11 -27 37 -16 86 38 105
113 208 286 208 348 0 54 -18 50 -75 -13z"/>
<path d="M9968 9303 c-86 -96 -228 -330 -228 -377 0 -42 33 -32 85 27 70 79
183 254 200 309 25 84 -1 102 -57 41z"/>
<path d="M13398 9299 c-52 -56 -122 -161 -181 -270 -51 -93 -56 -116 -30 -126
47 -18 274 304 277 394 1 52 -19 52 -66 2z"/>
<path d="M14192 9215 c-156 -103 -321 -222 -365 -264 -26 -23 -77 -109 -77
-127 0 -4 18 17 39 47 37 51 61 71 186 161 93 67 288 188 301 188 24 0 16 -29
-57 -197 -38 -90 -69 -169 -67 -175 3 -7 57 91 121 217 64 125 114 232 111
237 -14 22 -61 1 -192 -87z"/>
<path d="M9211 9195 c-41 -47 -104 -124 -140 -172 -119 -158 -126 -202 -28
-189 184 25 407 198 407 317 0 30 -7 43 -37 69 -36 32 -90 60 -115 60 -7 0
-46 -38 -87 -85z m156 7 c79 -61 -21 -213 -194 -294 -73 -35 -126 -35 -131 -2
-4 25 110 173 216 281 37 37 74 43 109 15z"/>
<path d="M8520 9220 c-9 -6 -10 -10 -3 -10 6 0 15 5 18 10 8 12 4 12 -15 0z"/>
<path d="M8460 9193 c-51 -25 -163 -140 -192 -198 -39 -77 -43 -108 -6 -40 40
71 133 174 194 212 24 15 44 31 44 36 0 9 1 9 -40 -10z"/>
<path d="M10534 9174 c-53 -36 -90 -71 -129 -124 -29 -40 -79 -140 -70 -140 2
0 18 26 35 57 46 81 85 127 149 175 75 56 77 58 64 58 -5 0 -28 -12 -49 -26z"/>
<path d="M7440 8969 c-130 -99 -140 -110 -68 -69 79 43 101 39 110 -23 9 -67
14 -67 21 -3 3 30 17 78 31 106 27 53 31 70 19 69 -5 0 -55 -36 -113 -80z"/>
<path d="M12999 8988 c-47 -35 -131 -95 -185 -135 -54 -40 -112 -84 -129 -98
-33 -29 8 -5 165 97 47 30 96 58 108 62 30 10 52 -9 52 -43 0 -37 11 -71 22
-71 5 0 7 4 4 8 -15 25 17 147 62 235 10 19 -21 2 -99 -55z"/>
<path d="M11799 8918 c-274 -198 -302 -225 -100 -99 63 39 125 71 138 71 22 0
24 -4 36 -65 l4 -20 8 20 c4 11 23 60 42 108 20 48 33 90 31 92 -2 3 -74 -46
-159 -107z"/>
<path d="M12470 9013 c-113 -77 -380 -276 -377 -280 3 -2 51 26 107 62 190
123 197 124 224 31 9 -30 20 -58 25 -61 5 -3 5 11 -1 32 -14 53 -3 117 33 179
32 57 30 65 -11 37z"/>
<path d="M11302 8884 c-114 -113 -128 -133 -47 -69 43 35 78 55 94 55 5 0 15
-16 21 -36 7 -19 14 -34 16 -31 3 3 31 98 51 175 3 13 1 22 -6 22 -6 0 -64
-52 -129 -116z"/>
<path d="M6901 8854 c-2 -49 21 -69 74 -65 16 1 14 4 -10 15 -34 15 -51 32
-58 61 -3 14 -5 11 -6 -11z"/>
<path d="M9230 8750 c-8 -5 -10 -10 -5 -10 6 0 17 5 25 10 8 5 11 10 5 10 -5
0 -17 -5 -25 -10z"/>
<path d="M9090 8717 c-27 -7 -37 -12 -25 -14 11 -2 43 3 70 11 59 17 22 19
-45 3z"/>
<path d="M8836 8649 c-20 -41 -30 -65 -24 -54 7 11 29 37 49 57 36 37 39 38
108 38 72 0 103 15 34 17 -21 0 -59 4 -85 8 l-47 7 -35 -73z"/>
</g>
</svg>
